<?xml version="1.0" encoding="UTF-8"?> <svg xmlns="http://www.w3.org/2000/svg" xmlns:xlink="http://www.w3.org/1999/xlink" width="340" height="2000" viewBox="0 0 340 2000"><defs><clipPath id="clip-path"><rect id="사각형_375" data-name="사각형 375" width="167.108" height="107.993" fill="none"></rect></clipPath><clipPath id="clip-section03_background_contents_mobile"><rect width="340" height="2000"></rect></clipPath></defs><g id="section03_background_contents_mobile" clip-path="url(#clip-section03_background_contents_mobile)"><g id="그룹_3295" data-name="그룹 3295" transform="translate(-13 -12)"><path id="패스_5300" data-name="패스 5300" d="M318.376,1179.349s-36.8,122.636,24.565,188.185c72.677,72.677,218.03,42.2,221.156,169.578.781,129.724-259.34,116.846-268.044,314.15-5.8,246.63,271.951,251.633,275.858,504.047-3.126,265.7-292.205,183.1-288.771,416.6-1.439,237.075,221.478,154.52,231.779,302.172" transform="translate(-238.455 -1061.597)" fill="none" stroke="#3db2ff" stroke-width="3" stroke-dasharray="15 10"></path><g id="그룹_3283" data-name="그룹 3283" transform="translate(32 15)"><g id="그룹_3282" data-name="그룹 3282" transform="translate(-7.999 -3)"><path id="패스_1559" data-name="패스 1559" d="M274.191,88.356l-49-38.656-49,38.656V146.7H274.3V88.356Z" transform="translate(-142.029 -40.063)" fill="#fff0e1"></path><path id="패스_1560" data-name="패스 1560" d="M274.191,88.356l-49-38.656-49,38.656v3.62l49-38.747L274.3,92.065v-3.71Z" transform="translate(-142.029 -40.063)" fill="#e6dcc3"></path><rect id="사각형_365" data-name="사각형 365" width="18.092" height="18.092" transform="translate(74.115 32.649)" fill="#495f69"></rect><rect id="사각형_366" data-name="사각형 366" width="15.248" height="15.248" transform="translate(75.537 34.071)" fill="#8abfdf"></rect><path id="패스_1561" data-name="패스 1561" d="M395.011,163.056v-1.284H375.645v19.366h1.284V163.056Z" transform="translate(-302.815 -130.407)" fill="#dadcdf"></path><path id="패스_1562" data-name="패스 1562" d="M393.024,175.735l-3.421,3.421v2.318l5.739-5.739Z" transform="translate(-314.067 -141.663)" fill="#a8d0e7"></path><path id="패스_1563" data-name="패스 1563" d="M396.852,175.735l-7.249,7.249v1.159l8.408-8.408Z" transform="translate(-314.067 -141.663)" fill="#a8d0e7"></path><path id="패스_1564" data-name="패스 1564" d="M402.219,175.735,389.6,188.35v.78L403,175.735Z" transform="translate(-314.067 -141.663)" fill="#a8d0e7"></path><path id="패스_1565" data-name="패스 1565" d="M403.581,202.248h.427l12.111-12.111v-.428Z" transform="translate(-325.334 -152.929)" fill="#a8d0e7"></path><path id="패스_1566" data-name="패스 1566" d="M403.6,175.735,389.6,189.729v.892l14.886-14.886Z" transform="translate(-314.067 -141.663)" fill="#a8d0e7"></path><rect id="사각형_367" data-name="사각형 367" width="22.784" height="15.45" transform="translate(97.08 59.993)" fill="#495f69"></rect><rect id="사각형_368" data-name="사각형 368" width="19.981" height="12.429" transform="translate(98.478 61.496)" fill="#8abfdf"></rect><path id="패스_1567" data-name="패스 1567" d="M513.44,317.186l-5.51,5.416v2.377l7.928-7.793Z" transform="translate(-409.452 -255.69)" fill="#a8d0e7"></path><path id="패스_1568" data-name="패스 1568" d="M517.433,317.186l-9.5,9.341v1.188l10.712-10.53Z" transform="translate(-409.452 -255.69)" fill="#a8d0e7"></path><path id="패스_1569" data-name="패스 1569" d="M533.243,317.186,520.6,329.615h.813l12.645-12.43Z" transform="translate(-419.664 -255.69)" fill="#a8d0e7"></path><path id="패스_1570" data-name="패스 1570" d="M549.335,332.411h.446L561.3,321.092v-.438Z" transform="translate(-442.83 -258.485)" fill="#a8d0e7"></path><path id="패스_1571" data-name="패스 1571" d="M540.661,317.186l-12.645,12.43h.93l12.645-12.43Z" transform="translate(-425.644 -255.69)" fill="#a8d0e7"></path><rect id="사각형_369" data-name="사각형 369" width="22.784" height="15.45" transform="translate(97.08 73.926)" fill="#495f69"></rect><rect id="사각형_370" data-name="사각형 370" width="19.981" height="12.429" transform="translate(98.478 75.428)" fill="#8abfdf"></rect><path id="패스_1572" data-name="패스 1572" d="M513.44,389.043l-5.51,5.417v2.377l7.929-7.793Z" transform="translate(-409.452 -313.615)" fill="#a8d0e7"></path><path id="패스_1573" data-name="패스 1573" d="M517.432,389.043l-9.5,9.342v1.188l10.712-10.53Z" transform="translate(-409.452 -313.615)" fill="#a8d0e7"></path><path id="패스_1574" data-name="패스 1574" d="M533.243,389.043,520.6,401.473h.813l12.645-12.43Z" transform="translate(-419.664 -313.615)" fill="#a8d0e7"></path><path id="패스_1575" data-name="패스 1575" d="M549.339,404.27h.446L561.3,392.952v-.438Z" transform="translate(-442.833 -316.413)" fill="#a8d0e7"></path><path id="패스_1576" data-name="패스 1576" d="M540.662,389.043l-12.645,12.43h.931l12.645-12.43Z" transform="translate(-425.644 -313.615)" fill="#a8d0e7"></path><rect id="사각형_371" data-name="사각형 371" width="26.521" height="45.591" transform="translate(50.676 61.074)" fill="#e05757"></rect><rect id="사각형_372" data-name="사각형 372" width="21.947" height="40.796" transform="translate(52.963 63.472)" fill="#e04545"></rect><rect id="사각형_373" data-name="사각형 373" width="16.87" height="16.631" transform="translate(55.501 65.852)" fill="#cf3f3f"></rect><rect id="사각형_374" data-name="사각형 374" width="16.87" height="16.631" transform="translate(55.501 85.256)" fill="#cf3f3f"></rect><g id="그룹_1302" data-name="그룹 1302"><g id="그룹_1301" data-name="그룹 1301" clip-path="url(#clip-path)"><path id="패스_1577" data-name="패스 1577" d="M375.732,427.828a1.144,1.144,0,1,1-1.144-1.144,1.144,1.144,0,0,1,1.144,1.144" transform="translate(-301.04 -343.958)" fill="#424242"></path><path id="패스_1578" data-name="패스 1578" d="M518.171,304.091v-1.284H494.1v30.667h1.284V304.091Z" transform="translate(-398.306 -244.098)" fill="#dadcdf"></path><path id="패스_1579" data-name="패스 1579" d="M185.792,0h0L127.315,46.219l5.051,5.663L185.792,9.635l53.426,42.247,5.051-5.663Z" transform="translate(-102.631 0)" fill="#e05757"></path><path id="패스_1580" data-name="패스 1580" d="M12.486,437.372c-.972-4.861-4.218-10.688-6.163-10.688S1.132,432.51.16,437.372a7.028,7.028,0,0,0,6.163,8.509,7.028,7.028,0,0,0,6.163-8.509" transform="translate(0 -343.958)" fill="#5a9f80"></path><path id="패스_1581" data-name="패스 1581" d="M29.016,498.252H26.737l.622-14.131h1.034Z" transform="translate(-21.553 -390.259)" fill="#87765f"></path><path id="패스_1582" data-name="패스 1582" d="M34.184,498.771l1.832-2.243.262.448-1.757,3.253Z" transform="translate(-27.556 -400.261)" fill="#87765f"></path><path id="패스_1583" data-name="패스 1583" d="M23.432,491.316,21.6,489.073l-.262.448,1.757,3.253Z" transform="translate(-17.202 -394.251)" fill="#87765f"></path><path id="패스_1584" data-name="패스 1584" d="M94.044,437.372c-.972-4.861-4.218-10.688-6.163-10.688s-5.191,5.826-6.163,10.688a7.027,7.027,0,0,0,6.163,8.509,7.028,7.028,0,0,0,6.163-8.509" transform="translate(-65.746 -343.958)" fill="#7abd6a"></path><path id="패스_1585" data-name="패스 1585" d="M110.574,498.252H108.3l.622-14.131h1.034Z" transform="translate(-87.3 -390.259)" fill="#87765f"></path><path id="패스_1586" data-name="패스 1586" d="M115.741,498.771l1.832-2.243.262.448-1.757,3.253Z" transform="translate(-93.301 -400.261)" fill="#87765f"></path><path id="패스_1587" data-name="패스 1587" d="M104.99,491.316l-1.832-2.243-.262.448,1.757,3.253Z" transform="translate(-82.947 -394.251)" fill="#87765f"></path><path id="패스_1588" data-name="패스 1588" d="M177.917,437.372c-.972-4.861-4.218-10.688-6.163-10.688s-5.191,5.826-6.163,10.688a6.486,6.486,0,1,0,12.326,0" transform="translate(-133.357 -343.958)" fill="#407059"></path><path id="패스_1589" data-name="패스 1589" d="M194.447,498.252h-2.279l.622-14.131h1.034Z" transform="translate(-154.91 -390.259)" fill="#5c5041"></path><path id="패스_1590" data-name="패스 1590" d="M199.613,498.771l1.832-2.243.262.448-1.757,3.253Z" transform="translate(-160.912 -400.261)" fill="#5c5041"></path><path id="패스_1591" data-name="패스 1591" d="M188.862,491.316l-1.832-2.243-.262.448,1.757,3.253Z" transform="translate(-150.558 -394.251)" fill="#5c5041"></path><path id="패스_1592" data-name="패스 1592" d="M643.741,437.372c-.972-4.861-4.219-10.688-6.163-10.688s-5.191,5.826-6.163,10.688a6.486,6.486,0,1,0,12.326,0" transform="translate(-508.867 -343.958)" fill="#407059"></path><path id="패스_1593" data-name="패스 1593" d="M660.271,498.252h-2.279l.622-14.131h1.034Z" transform="translate(-530.42 -390.259)" fill="#5c5041"></path><path id="패스_1594" data-name="패스 1594" d="M665.438,498.771l1.832-2.243.262.448-1.757,3.253Z" transform="translate(-536.422 -400.261)" fill="#5c5041"></path><path id="패스_1595" data-name="패스 1595" d="M654.685,491.316l-1.832-2.243-.262.448,1.757,3.253Z" transform="translate(-526.067 -394.251)" fill="#5c5041"></path><path id="패스_1596" data-name="패스 1596" d="M725.3,437.372c-.973-4.861-4.219-10.688-6.163-10.688s-5.191,5.826-6.163,10.688a6.486,6.486,0,1,0,12.326,0" transform="translate(-574.613 -343.958)" fill="#7abd6a"></path><path id="패스_1597" data-name="패스 1597" d="M741.829,498.252h-2.279l.622-14.131h1.034Z" transform="translate(-596.166 -390.259)" fill="#87765f"></path><path id="패스_1598" data-name="패스 1598" d="M747,498.771l1.832-2.243.262.448-1.757,3.253Z" transform="translate(-602.168 -400.261)" fill="#87765f"></path><path id="패스_1599" data-name="패스 1599" d="M736.244,491.316l-1.832-2.243-.262.448,1.757,3.253Z" transform="translate(-591.813 -394.251)" fill="#87765f"></path><path id="패스_1600" data-name="패스 1600" d="M809.171,437.372c-.972-4.861-4.218-10.688-6.163-10.688s-5.191,5.826-6.163,10.688a6.486,6.486,0,1,0,12.326,0" transform="translate(-642.223 -343.958)" fill="#5a9f80"></path><path id="패스_1601" data-name="패스 1601" d="M825.7,498.252h-2.279l.622-14.131h1.035Z" transform="translate(-663.777 -390.259)" fill="#87765f"></path><path id="패스_1602" data-name="패스 1602" d="M830.867,498.771l1.832-2.243.262.448-1.757,3.253Z" transform="translate(-669.778 -400.261)" fill="#87765f"></path><path id="패스_1603" data-name="패스 1603" d="M820.117,491.316l-1.832-2.243-.262.448,1.757,3.253Z" transform="translate(-659.424 -394.251)" fill="#87765f"></path></g></g></g></g></g></g></svg> 