<?xml version="1.0" encoding="UTF-8"?> <svg xmlns="http://www.w3.org/2000/svg" xmlns:xlink="http://www.w3.org/1999/xlink" width="1920" height="817" viewBox="0 0 1920 817"><defs><clipPath id="clip-path"><rect id="사각형_115146" data-name="사각형 115146" width="1920" height="817" fill="#fff"></rect></clipPath><clipPath id="clip-path-2"><rect id="사각형_516" data-name="사각형 516" width="2357.656" height="1068.622" fill="#55baff"></rect></clipPath><clipPath id="clip-path-3"><rect id="사각형_515" data-name="사각형 515" width="2357.647" height="1068.622" fill="#c2e6ff"></rect></clipPath><clipPath id="clip-path-4"><rect id="사각형_514" data-name="사각형 514" width="2357.656" height="1068.622" fill="#c2e6ff"></rect></clipPath><clipPath id="clip-path-5"><rect id="사각형_515-2" data-name="사각형 515" width="2357.647" height="1068.622" fill="#55baff"></rect></clipPath><linearGradient id="linear-gradient" x1="0.5" x2="0.59" y2="1.083" gradientUnits="objectBoundingBox"><stop offset="0" stop-color="#0affd5"></stop><stop offset="0.427" stop-color="#0537ff"></stop><stop offset="1" stop-color="#0357ff"></stop></linearGradient><clipPath id="clip-section01_background"><rect width="1920" height="817"></rect></clipPath></defs><g id="section01_background" clip-path="url(#clip-section01_background)"><g id="마스크_그룹_25" data-name="마스크 그룹 25" clip-path="url(#clip-path)"><g id="그룹_3278" data-name="그룹 3278"><g id="그룹_1488" data-name="그룹 1488" transform="translate(-251.084 -640.73)" clip-path="url(#clip-path-2)"><g id="그룹_1522" data-name="그룹 1522" transform="translate(117)"><g id="그룹_1486" data-name="그룹 1486" clip-path="url(#clip-path-3)"><g id="그룹_1485" data-name="그룹 1485"><g id="그룹_1484" data-name="그룹 1484"><g id="그룹_1483" data-name="그룹 1483" clip-path="url(#clip-path-4)"><path id="패스_4151" data-name="패스 4151" d="M134.423,354.75C51.823,407-152.579,571.138-142,668.3c13.817,126.855,172.538,379.965,298.678,399.252,189.069,28.908,502.416-225,748.479-332.026,95.438-41.511,301.7-48.671,397.505-8.008s202.587,76.417,302.164,46.144c76.068-23.127,141.4-83.346,220.888-85.213,119.124-2.8,210.906,126.063,330.035,123.347,94.206-2.145,167.644-89.67,190.944-180.976,35.385-138.661-18.074-290.424-115.945-394.829S1996.115,70.213,1856.334,39.555s-284.015-32.979-427.1-35.172L1183.717.622c-144.8-2.22-297.784-2.411-422.995,70.35-111.071,64.547-190.54,177.254-321,207.855-106.311,24.936-207.132,13.826-305.3,75.923" transform="translate(0.001 -0.001)" fill="#c2e6ff"></path></g></g></g></g></g><g id="그룹_1487" data-name="그룹 1487"><g id="그룹_1486-2" data-name="그룹 1486" clip-path="url(#clip-path-5)"><g id="그룹_1485-2" data-name="그룹 1485"><g id="그룹_1484-2" data-name="그룹 1484"><g id="그룹_1483-2" data-name="그룹 1483" clip-path="url(#clip-path-2)"><path id="패스_4151-2" data-name="패스 4151" d="M134.423,354.75C51.823,407-9.391,501.788,1.192,598.949c13.817,126.855,134.419,448.1,260.559,467.386,189.069,28.908,397.347-223.78,643.41-330.81,95.438-41.511,301.7-48.671,397.505-8.008s202.587,76.417,302.164,46.144c76.068-23.127,141.4-83.346,220.888-85.213,119.124-2.8,210.906,126.063,330.035,123.347,94.206-2.145,167.644-89.67,190.944-180.976,35.385-138.661-18.074-290.424-115.945-394.829S1996.115,70.213,1856.334,39.555s-284.015-32.979-427.1-35.172L1183.717.622c-144.8-2.22-297.784-2.411-422.995,70.35-111.071,64.547-190.54,177.254-321,207.855-106.311,24.936-207.132,13.826-305.3,75.923" transform="translate(0.001 -0.001)" fill="#55baff"></path></g></g></g></g></g></g><ellipse id="타원_60" data-name="타원 60" cx="29.5" cy="30" rx="29.5" ry="30" transform="translate(752 95)" fill="#55baff"></ellipse><circle id="타원_66" data-name="타원 66" cx="20" cy="20" r="20" transform="translate(1548 73)" fill="#55baff" opacity="0.33"></circle><circle id="타원_68" data-name="타원 68" cx="12.5" cy="12.5" r="12.5" transform="translate(1576 65)" fill="#55baff" opacity="0.33"></circle><circle id="타원_61" data-name="타원 61" cx="8" cy="8" r="8" transform="translate(714 91)" fill="#55baff"></circle><circle id="타원_67" data-name="타원 67" cx="15" cy="15" r="15" transform="translate(700 130)" fill="#55baff"></circle><path id="패스_4115" data-name="패스 4115" d="M120.3,966.426c2.938-3.6,5.564-7.127,8.238-10.791q3.975-5.472,7.806-11.137,7.672-11.32,14.9-23.319,14.474-23.967,27.3-50.322A707.529,707.529,0,0,0,222.1,757.107a731.386,731.386,0,0,0,24.7-127.839,757.669,757.669,0,0,0,1.73-133.67C245.2,451.357,238.35,407.7,227.3,366.91c-11-40.782-26.265-78.446-44.983-110.662-18.692-32.279-40.7-59.113-64.491-80.137A253.6,253.6,0,0,0,80.9,148.842c-12.682-7.571-25.655-13.99-38.933-17.925,13.216,4.428,26.072,11.32,38.6,19.331a261.2,261.2,0,0,1,36.36,28.5c23.345,21.763,44.726,49.148,62.678,81.6,17.983,32.4,32.408,69.868,42.6,110.133,10.24,40.256,16.33,83.145,18.981,126.442a734.5,734.5,0,0,1-3.481,129.682,697.115,697.115,0,0,1-25.584,122.606,667.588,667.588,0,0,1-43.617,108.3q-12.731,24.952-27.024,47.575-7.131,11.284-14.624,21.862-3.746,5.276-7.578,10.327c-2.539,3.324-5.178,6.687-7.679,9.6Z" transform="translate(934.522 542.122) rotate(89)" opacity="0.34" fill="url(#linear-gradient)"></path></g></g></g></svg> 